<?xml version="1.0" encoding="UTF-8" standalone="no"?>
<!DOCTYPE svg PUBLIC "-//W3C//DTD SVG 1.1//EN"
 "http://www.w3.org/Graphics/SVG/1.1/DTD/svg11.dtd">
<!-- Generated by graphviz version 2.43.0 (0)
 -->
<!-- Title: RespString Pages: 1 -->
<svg width="121pt" height="215pt"
 viewBox="0.00 0.00 121.00 215.00" xmlns="http://www.w3.org/2000/svg" xmlns:xlink="http://www.w3.org/1999/xlink">
<g id="graph0" class="graph" transform="scale(1 1) rotate(0) translate(4 211)">
<title>RespString</title>
<polygon fill="white" stroke="transparent" points="-4,4 -4,-211 117,-211 117,4 -4,4"/>
<!-- Node1 -->
<g id="node1" class="node">
<title>Node1</title>
<g id="a_node1"><a xlink:title=" ">
<polygon fill="#bfbfbf" stroke="black" points="12.5,-0.5 12.5,-79.5 100.5,-79.5 100.5,-0.5 12.5,-0.5"/>
<text text-anchor="middle" x="56.5" y="-67.5" font-family="Helvetica,sans-Serif" font-size="10.00">RespString</text>
<polyline fill="none" stroke="black" points="12.5,-60.5 100.5,-60.5 "/>
<text text-anchor="start" x="20.5" y="-48.5" font-family="Helvetica,sans-Serif" font-size="10.00">+ m_value</text>
<polyline fill="none" stroke="black" points="12.5,-41.5 100.5,-41.5 "/>
<text text-anchor="start" x="20.5" y="-29.5" font-family="Helvetica,sans-Serif" font-size="10.00">+ RespString()</text>
<text text-anchor="start" x="20.5" y="-18.5" font-family="Helvetica,sans-Serif" font-size="10.00">+ to_string()</text>
<text text-anchor="start" x="20.5" y="-7.5" font-family="Helvetica,sans-Serif" font-size="10.00">+ serialize()</text>
</a>
</g>
</g>
<!-- Node2 -->
<g id="node2" class="node">
<title>Node2</title>
<g id="a_node2"><a xlink:href="classAbstractRespObject.html" target="_top" xlink:title=" ">
<polygon fill="white" stroke="black" points="0,-116.5 0,-206.5 113,-206.5 113,-116.5 0,-116.5"/>
<text text-anchor="middle" x="56.5" y="-194.5" font-family="Helvetica,sans-Serif" font-size="10.00">AbstractRespObject</text>
<polyline fill="none" stroke="black" points="0,-187.5 113,-187.5 "/>
<text text-anchor="start" x="8" y="-175.5" font-family="Helvetica,sans-Serif" font-size="10.00">+ m_is_aggregate</text>
<text text-anchor="start" x="8" y="-164.5" font-family="Helvetica,sans-Serif" font-size="10.00">+ m_datatype</text>
<polyline fill="none" stroke="black" points="0,-157.5 113,-157.5 "/>
<text text-anchor="start" x="8" y="-145.5" font-family="Helvetica,sans-Serif" font-size="10.00">+ to_string()</text>
<text text-anchor="start" x="8" y="-134.5" font-family="Helvetica,sans-Serif" font-size="10.00">+ serialize()</text>
<text text-anchor="start" x="8" y="-123.5" font-family="Helvetica,sans-Serif" font-size="10.00">+ get_type()</text>
</a>
</g>
</g>
<!-- Node2&#45;&gt;Node1 -->
<g id="edge1" class="edge">
<title>Node2&#45;&gt;Node1</title>
<path fill="none" stroke="midnightblue" d="M56.5,-106.08C56.5,-97.23 56.5,-88.23 56.5,-79.86"/>
<polygon fill="none" stroke="midnightblue" points="53,-106.34 56.5,-116.34 60,-106.34 53,-106.34"/>
</g>
</g>
</svg>
