<?xml version="1.0" encoding="UTF-8" standalone="no"?>
<!DOCTYPE svg PUBLIC "-//W3C//DTD SVG 1.1//EN"
 "http://www.w3.org/Graphics/SVG/1.1/DTD/svg11.dtd">
<!-- Generated by graphviz version 2.43.0 (0)
 -->
<!-- Title: Orchestrator::epoll_rearm_unsafe Pages: 1 -->
<svg width="401pt" height="39pt"
 viewBox="0.00 0.00 401.00 39.00" xmlns="http://www.w3.org/2000/svg" xmlns:xlink="http://www.w3.org/1999/xlink">
<g id="graph0" class="graph" transform="scale(1 1) rotate(0) translate(4 35)">
<title>Orchestrator::epoll_rearm_unsafe</title>
<polygon fill="white" stroke="transparent" points="-4,4 -4,-35 397,-35 397,4 -4,4"/>
<!-- Node1 -->
<g id="node1" class="node">
<title>Node1</title>
<g id="a_node1"><a xlink:title="rebuild the epoll monitor from the set of fd&#39;s">
<polygon fill="#bfbfbf" stroke="black" points="286,-0.5 286,-30.5 393,-30.5 393,-0.5 286,-0.5"/>
<text text-anchor="start" x="294" y="-18.5" font-family="Helvetica,sans-Serif" font-size="10.00">Orchestrator::epoll</text>
<text text-anchor="middle" x="339.5" y="-7.5" font-family="Helvetica,sans-Serif" font-size="10.00">_rearm_unsafe</text>
</a>
</g>
</g>
<!-- Node2 -->
<g id="node2" class="node">
<title>Node2</title>
<g id="a_node2"><a xlink:href="classOrchestrator.html#a000d29b799ace8712b6b8b4af774e38e" target="_top" xlink:title="rebuild the epoll monitor from the set of fd&#39;s">
<polygon fill="white" stroke="black" points="143,-0.5 143,-30.5 250,-30.5 250,-0.5 143,-0.5"/>
<text text-anchor="start" x="151" y="-18.5" font-family="Helvetica,sans-Serif" font-size="10.00">Orchestrator::epoll</text>
<text text-anchor="middle" x="196.5" y="-7.5" font-family="Helvetica,sans-Serif" font-size="10.00">_rearm</text>
</a>
</g>
</g>
<!-- Node1&#45;&gt;Node2 -->
<g id="edge1" class="edge">
<title>Node1&#45;&gt;Node2</title>
<path fill="none" stroke="midnightblue" d="M275.95,-15.5C267.3,-15.5 258.49,-15.5 250.05,-15.5"/>
<polygon fill="midnightblue" stroke="midnightblue" points="276,-19 286,-15.5 276,-12 276,-19"/>
</g>
<!-- Node3 -->
<g id="node3" class="node">
<title>Node3</title>
<g id="a_node3"><a xlink:href="classOrchestrator.html#a640e83ff96462b56020ad9695c5451e7" target="_top" xlink:title="Loop and call epoll, and send ready sockets to workers.">
<polygon fill="white" stroke="black" points="0,-0.5 0,-30.5 107,-30.5 107,-0.5 0,-0.5"/>
<text text-anchor="start" x="8" y="-18.5" font-family="Helvetica,sans-Serif" font-size="10.00">Orchestrator::epoll</text>
<text text-anchor="middle" x="53.5" y="-7.5" font-family="Helvetica,sans-Serif" font-size="10.00">_thread_loop</text>
</a>
</g>
</g>
<!-- Node2&#45;&gt;Node3 -->
<g id="edge2" class="edge">
<title>Node2&#45;&gt;Node3</title>
<path fill="none" stroke="midnightblue" d="M132.95,-15.5C124.3,-15.5 115.49,-15.5 107.05,-15.5"/>
<polygon fill="midnightblue" stroke="midnightblue" points="133,-19 143,-15.5 133,-12 133,-19"/>
</g>
</g>
</svg>
