<?xml version="1.0" encoding="UTF-8" standalone="no"?>
<!DOCTYPE svg PUBLIC "-//W3C//DTD SVG 1.1//EN"
 "http://www.w3.org/Graphics/SVG/1.1/DTD/svg11.dtd">
<!-- Generated by graphviz version 2.43.0 (0)
 -->
<!-- Title: JobInterface Pages: 1 -->
<!--zoomable 281 -->
<svg id="main" version="1.1" xmlns="http://www.w3.org/2000/svg" xmlns:xlink="http://www.w3.org/1999/xlink" xml:space="preserve" onload="init(evt)">
<style type="text/css"><![CDATA[
.edge:hover path { stroke: red; }
.edge:hover polygon { stroke: red; fill: red; }
]]></style>
<script type="text/javascript"><![CDATA[
var edges = document.getElementsByTagName('g');
if (edges && edges.length) {
  for (var i=0;i<edges.length;i++) {
    if (edges[i].id.substr(0,4)=='edge') {
      edges[i].setAttribute('class','edge');
    }
  }
}
]]></script>
        <defs>
                <circle id="rim" cx="0" cy="0" r="7"/>
                <circle id="rim2" cx="0" cy="0" r="3.5"/>
                <g id="zoomPlus">
                        <use xlink:href="#rim" fill="#404040">
                                <set attributeName="fill" to="#808080" begin="zoomplus.mouseover" end="zoomplus.mouseout"/>
                        </use>
                        <path d="M-4,0h8M0,-4v8" fill="none" stroke="white" stroke-width="1.5" pointer-events="none"/>
                </g>
                <g id="zoomMin">
                        <use xlink:href="#rim" fill="#404040">
                                <set attributeName="fill" to="#808080" begin="zoomminus.mouseover" end="zoomminus.mouseout"/>
                        </use>
                        <path d="M-4,0h8" fill="none" stroke="white" stroke-width="1.5" pointer-events="none"/>
                </g>
                <g id="dirArrow">
                        <path fill="none" stroke="white" stroke-width="1.5" d="M0,-3.0v7 M-2.5,-0.5L0,-3.0L2.5,-0.5"/>
                </g>
               <g id="resetDef">
                       <use xlink:href="#rim2" fill="#404040">
                               <set attributeName="fill" to="#808080" begin="reset.mouseover" end="reset.mouseout"/>
                       </use>
               </g>
        </defs>

<script type="text/javascript">
var viewWidth = 522;
var viewHeight = 281;
var sectionId = 'dynsection-0';
</script>
<script xlink:href="svgpan.js"/>
<svg id="graph" class="graph">
<g id="viewport">
<title>JobInterface</title>
<polygon fill="white" stroke="transparent" points="-4,4 -4,-277 517.5,-277 517.5,4 -4,4"/>
<!-- Node1 -->
<g id="node1" class="node">
<title>Node1</title>
<g id="a_node1"><a xlink:title=" ">
<polygon fill="#bfbfbf" stroke="black" points="201.5,-149.5 201.5,-272.5 332.5,-272.5 332.5,-149.5 201.5,-149.5"/>
<text text-anchor="middle" x="267" y="-260.5" font-family="Helvetica,sans-Serif" font-size="10.00">JobInterface</text>
<polyline fill="none" stroke="black" points="201.5,-253.5 332.5,-253.5 "/>
<text text-anchor="start" x="209.5" y="-241.5" font-family="Helvetica,sans-Serif" font-size="10.00">+ m_job_id</text>
<text text-anchor="start" x="209.5" y="-230.5" font-family="Helvetica,sans-Serif" font-size="10.00">+ m_job_description</text>
<polyline fill="none" stroke="black" points="201.5,-223.5 332.5,-223.5 "/>
<text text-anchor="start" x="209.5" y="-211.5" font-family="Helvetica,sans-Serif" font-size="10.00">+ get_job_description()</text>
<text text-anchor="start" x="209.5" y="-200.5" font-family="Helvetica,sans-Serif" font-size="10.00">+ JobInterface()</text>
<text text-anchor="start" x="209.5" y="-189.5" font-family="Helvetica,sans-Serif" font-size="10.00">+ set_job_description()</text>
<text text-anchor="start" x="209.5" y="-178.5" font-family="Helvetica,sans-Serif" font-size="10.00">+ get_job_id()</text>
<text text-anchor="start" x="209.5" y="-167.5" font-family="Helvetica,sans-Serif" font-size="10.00">+ run()</text>
<text text-anchor="start" x="209.5" y="-156.5" font-family="Helvetica,sans-Serif" font-size="10.00">+ ~JobInterface()</text>
</a>
</g>
</g>
<!-- Node2 -->
<g id="node2" class="node">
<title>Node2</title>
<g id="a_node2"><a xlink:href="classBasicTest.html" target="_top" xlink:title=" ">
<polygon fill="white" stroke="black" points="0,-0.5 0,-112.5 126,-112.5 126,-0.5 0,-0.5"/>
<text text-anchor="middle" x="63" y="-100.5" font-family="Helvetica,sans-Serif" font-size="10.00">BasicTest</text>
<polyline fill="none" stroke="black" points="0,-93.5 126,-93.5 "/>
<text text-anchor="start" x="8" y="-81.5" font-family="Helvetica,sans-Serif" font-size="10.00">+ p_constructor_count</text>
<text text-anchor="start" x="8" y="-70.5" font-family="Helvetica,sans-Serif" font-size="10.00">+ p_destructor_count</text>
<text text-anchor="start" x="8" y="-59.5" font-family="Helvetica,sans-Serif" font-size="10.00">+ p_run_count</text>
<text text-anchor="start" x="8" y="-48.5" font-family="Helvetica,sans-Serif" font-size="10.00">+ m_is_debug</text>
<polyline fill="none" stroke="black" points="0,-41.5 126,-41.5 "/>
<text text-anchor="start" x="8" y="-29.5" font-family="Helvetica,sans-Serif" font-size="10.00">+ run()</text>
<text text-anchor="start" x="8" y="-18.5" font-family="Helvetica,sans-Serif" font-size="10.00">+ ~BasicTest()</text>
<text text-anchor="start" x="8" y="-7.5" font-family="Helvetica,sans-Serif" font-size="10.00">+ BasicTest()</text>
</a>
</g>
</g>
<!-- Node1&#45;&gt;Node2 -->
<g id="edge1" class="edge">
<title>Node1&#45;&gt;Node2</title>
<path fill="none" stroke="midnightblue" d="M193.25,-156.27C174.21,-142.27 153.79,-127.14 135,-113 132.1,-110.82 129.14,-108.58 126.15,-106.31"/>
<polygon fill="none" stroke="midnightblue" points="191.19,-159.09 201.32,-162.19 195.33,-153.45 191.19,-159.09"/>
</g>
<!-- Node3 -->
<g id="node3" class="node">
<title>Node3</title>
<g id="a_node3"><a xlink:href="classParseAndRunJob.html" target="_top" xlink:title=" ">
<polygon fill="white" stroke="black" points="144.5,-17 144.5,-96 259.5,-96 259.5,-17 144.5,-17"/>
<text text-anchor="middle" x="202" y="-84" font-family="Helvetica,sans-Serif" font-size="10.00">ParseAndRunJob</text>
<polyline fill="none" stroke="black" points="144.5,-77 259.5,-77 "/>
<text text-anchor="start" x="152.5" y="-65" font-family="Helvetica,sans-Serif" font-size="10.00">+ m_pstate</text>
<text text-anchor="start" x="152.5" y="-54" font-family="Helvetica,sans-Serif" font-size="10.00">+ m_porchestrator</text>
<polyline fill="none" stroke="black" points="144.5,-47 259.5,-47 "/>
<text text-anchor="start" x="152.5" y="-35" font-family="Helvetica,sans-Serif" font-size="10.00">+ ParseAndRunJob()</text>
<text text-anchor="start" x="152.5" y="-24" font-family="Helvetica,sans-Serif" font-size="10.00">+ run()</text>
</a>
</g>
</g>
<!-- Node1&#45;&gt;Node3 -->
<g id="edge2" class="edge">
<title>Node1&#45;&gt;Node3</title>
<path fill="none" stroke="midnightblue" d="M237.14,-139.95C230.71,-124.86 224.14,-109.44 218.44,-96.07"/>
<polygon fill="none" stroke="midnightblue" points="233.98,-141.46 241.12,-149.29 240.42,-138.72 233.98,-141.46"/>
</g>
<!-- Node4 -->
<g id="node4" class="node">
<title>Node4</title>
<g id="a_node4"><a xlink:href="classSocketReadJob.html" target="_top" xlink:title="Job to read from a socket.">
<polygon fill="white" stroke="black" points="278,-17 278,-96 386,-96 386,-17 278,-17"/>
<text text-anchor="middle" x="332" y="-84" font-family="Helvetica,sans-Serif" font-size="10.00">SocketReadJob</text>
<polyline fill="none" stroke="black" points="278,-77 386,-77 "/>
<text text-anchor="start" x="286" y="-65" font-family="Helvetica,sans-Serif" font-size="10.00">+ m_pstate</text>
<text text-anchor="start" x="286" y="-54" font-family="Helvetica,sans-Serif" font-size="10.00">+ m_porchestrator</text>
<polyline fill="none" stroke="black" points="278,-47 386,-47 "/>
<text text-anchor="start" x="286" y="-35" font-family="Helvetica,sans-Serif" font-size="10.00">+ SocketReadJob()</text>
<text text-anchor="start" x="286" y="-24" font-family="Helvetica,sans-Serif" font-size="10.00">+ run()</text>
</a>
</g>
</g>
<!-- Node1&#45;&gt;Node4 -->
<g id="edge3" class="edge">
<title>Node1&#45;&gt;Node4</title>
<path fill="none" stroke="midnightblue" d="M296.86,-139.95C303.29,-124.86 309.86,-109.44 315.56,-96.07"/>
<polygon fill="none" stroke="midnightblue" points="293.58,-138.72 292.88,-149.29 300.02,-141.46 293.58,-138.72"/>
</g>
<!-- Node5 -->
<g id="node5" class="node">
<title>Node5</title>
<g id="a_node5"><a xlink:href="classSocketWriteJob.html" target="_top" xlink:title=" ">
<polygon fill="white" stroke="black" points="404.5,-17 404.5,-96 513.5,-96 513.5,-17 404.5,-17"/>
<text text-anchor="middle" x="459" y="-84" font-family="Helvetica,sans-Serif" font-size="10.00">SocketWriteJob</text>
<polyline fill="none" stroke="black" points="404.5,-77 513.5,-77 "/>
<text text-anchor="start" x="412.5" y="-65" font-family="Helvetica,sans-Serif" font-size="10.00">+ m_pstate</text>
<text text-anchor="start" x="412.5" y="-54" font-family="Helvetica,sans-Serif" font-size="10.00">+ m_porchestrator</text>
<polyline fill="none" stroke="black" points="404.5,-47 513.5,-47 "/>
<text text-anchor="start" x="412.5" y="-35" font-family="Helvetica,sans-Serif" font-size="10.00">+ SocketWriteJob()</text>
<text text-anchor="start" x="412.5" y="-24" font-family="Helvetica,sans-Serif" font-size="10.00">+ run()</text>
</a>
</g>
</g>
<!-- Node1&#45;&gt;Node5 -->
<g id="edge4" class="edge">
<title>Node1&#45;&gt;Node5</title>
<path fill="none" stroke="midnightblue" d="M340.89,-155.31C358.78,-141.71 377.72,-127.01 395,-113 401.63,-107.63 408.53,-101.84 415.26,-96.1"/>
<polygon fill="none" stroke="midnightblue" points="338.62,-152.64 332.76,-161.47 342.84,-158.22 338.62,-152.64"/>
</g>
</g>
</svg>
        <g id="navigator" transform="translate(0 0)" fill="#404254">
                <rect fill="#f2f5e9" fill-opacity="0.5" stroke="#606060" stroke-width=".5" x="0" y="0" width="60" height="60"/>
                <use id="zoomplus" xlink:href="#zoomPlus" x="17" y="9" onmousedown="handleZoom(evt,'in')"/>
                <use id="zoomminus" xlink:href="#zoomMin" x="42" y="9" onmousedown="handleZoom(evt,'out')"/>
                <use id="reset" xlink:href="#resetDef" x="30" y="36" onmousedown="handleReset()"/>
                <g id="arrowUp" xlink:href="#dirArrow" transform="translate(30 24)" onmousedown="handlePan(0,-1)">
                  <use xlink:href="#rim" fill="#404040">
                        <set attributeName="fill" to="#808080" begin="arrowUp.mouseover" end="arrowUp.mouseout"/>
                  </use>
                  <path fill="none" stroke="white" stroke-width="1.5" d="M0,-3.0v7 M-2.5,-0.5L0,-3.0L2.5,-0.5"/>
                </g>
                <g id="arrowRight" xlink:href="#dirArrow" transform="rotate(90) translate(36 -43)" onmousedown="handlePan(1,0)">
                  <use xlink:href="#rim" fill="#404040">
                        <set attributeName="fill" to="#808080" begin="arrowRight.mouseover" end="arrowRight.mouseout"/>
                  </use>
                  <path fill="none" stroke="white" stroke-width="1.5" d="M0,-3.0v7 M-2.5,-0.5L0,-3.0L2.5,-0.5"/>
                </g>
                <g id="arrowDown" xlink:href="#dirArrow" transform="rotate(180) translate(-30 -48)" onmousedown="handlePan(0,1)">
                  <use xlink:href="#rim" fill="#404040">
                        <set attributeName="fill" to="#808080" begin="arrowDown.mouseover" end="arrowDown.mouseout"/>
                  </use>
                  <path fill="none" stroke="white" stroke-width="1.5" d="M0,-3.0v7 M-2.5,-0.5L0,-3.0L2.5,-0.5"/>
                </g>
                <g id="arrowLeft" xlink:href="#dirArrow" transform="rotate(270) translate(-36 17)" onmousedown="handlePan(-1,0)">
                  <use xlink:href="#rim" fill="#404040">
                        <set attributeName="fill" to="#808080" begin="arrowLeft.mouseover" end="arrowLeft.mouseout"/>
                  </use>
                  <path fill="none" stroke="white" stroke-width="1.5" d="M0,-3.0v7 M-2.5,-0.5L0,-3.0L2.5,-0.5"/>
                </g>
        </g>
        <svg viewBox="0 0 15 15" width="100%" height="30px" preserveAspectRatio="xMaxYMin meet">
         <g id="arrow_out" transform="scale(0.3 0.3)">
          <a xlink:href="classJobInterface__inherit__graph_org.svg" target="_base">
           <rect id="button" ry="5" rx="5" y="6" x="6" height="38" width="38"
                fill="#f2f5e9" fill-opacity="0.5" stroke="#606060" stroke-width="1.0"/>
           <path id="arrow"
             d="M 11.500037,31.436501 C 11.940474,20.09759 22.043105,11.32322 32.158766,21.979434 L 37.068811,17.246167 C 37.068811,17.246167 37.088388,32 37.088388,32 L 22.160133,31.978069 C 22.160133,31.978069 26.997745,27.140456 26.997745,27.140456 C 18.528582,18.264221 13.291696,25.230495 11.500037,31.436501 z"
             style="fill:#404040;"/>
          </a>
         </g>
        </svg>
</svg>
