<?xml version="1.0" encoding="UTF-8" standalone="no"?>
<!DOCTYPE svg PUBLIC "-//W3C//DTD SVG 1.1//EN"
 "http://www.w3.org/Graphics/SVG/1.1/DTD/svg11.dtd">
<!-- Generated by graphviz version 2.43.0 (0)
 -->
<!-- Title: Orchestrator::create_processing_job Pages: 1 -->
<svg width="265pt" height="39pt"
 viewBox="0.00 0.00 265.00 39.00" xmlns="http://www.w3.org/2000/svg" xmlns:xlink="http://www.w3.org/1999/xlink">
<g id="graph0" class="graph" transform="scale(1 1) rotate(0) translate(4 35)">
<title>Orchestrator::create_processing_job</title>
<polygon fill="white" stroke="transparent" points="-4,4 -4,-35 261,-35 261,4 -4,4"/>
<!-- Node1 -->
<g id="node1" class="node">
<title>Node1</title>
<g id="a_node1"><a xlink:title="creates a processing job for a ready to read fd">
<polygon fill="#bfbfbf" stroke="black" points="143,-0.5 143,-30.5 257,-30.5 257,-0.5 143,-0.5"/>
<text text-anchor="start" x="151" y="-18.5" font-family="Helvetica,sans-Serif" font-size="10.00">Orchestrator::create</text>
<text text-anchor="middle" x="200" y="-7.5" font-family="Helvetica,sans-Serif" font-size="10.00">_processing_job</text>
</a>
</g>
</g>
<!-- Node2 -->
<g id="node2" class="node">
<title>Node2</title>
<g id="a_node2"><a xlink:href="classOrchestrator.html#a640e83ff96462b56020ad9695c5451e7" target="_top" xlink:title="Loop and call epoll, and send ready sockets to workers.">
<polygon fill="white" stroke="black" points="0,-0.5 0,-30.5 107,-30.5 107,-0.5 0,-0.5"/>
<text text-anchor="start" x="8" y="-18.5" font-family="Helvetica,sans-Serif" font-size="10.00">Orchestrator::epoll</text>
<text text-anchor="middle" x="53.5" y="-7.5" font-family="Helvetica,sans-Serif" font-size="10.00">_thread_loop</text>
</a>
</g>
</g>
<!-- Node1&#45;&gt;Node2 -->
<g id="edge1" class="edge">
<title>Node1&#45;&gt;Node2</title>
<path fill="none" stroke="midnightblue" d="M132.71,-15.5C124.12,-15.5 115.41,-15.5 107.08,-15.5"/>
<polygon fill="midnightblue" stroke="midnightblue" points="132.72,-19 142.72,-15.5 132.72,-12 132.72,-19"/>
</g>
</g>
</svg>
