<?xml version="1.0" encoding="UTF-8" standalone="no"?>
<!DOCTYPE svg PUBLIC "-//W3C//DTD SVG 1.1//EN"
 "http://www.w3.org/Graphics/SVG/1.1/DTD/svg11.dtd">
<!-- Generated by graphviz version 2.43.0 (0)
 -->
<!-- Title: SocketReadJob Pages: 1 -->
<svg width="392pt" height="892pt"
 viewBox="0.00 0.00 391.50 892.00" xmlns="http://www.w3.org/2000/svg" xmlns:xlink="http://www.w3.org/1999/xlink">
<g id="graph0" class="graph" transform="scale(1 1) rotate(0) translate(4 888)">
<title>SocketReadJob</title>
<polygon fill="white" stroke="transparent" points="-4,4 -4,-888 387.5,-888 387.5,4 -4,4"/>
<!-- Node1 -->
<g id="node1" class="node">
<title>Node1</title>
<g id="a_node1"><a xlink:title="Job to read from a socket.">
<polygon fill="#bfbfbf" stroke="black" points="28,-0.5 28,-68.5 135,-68.5 135,-0.5 28,-0.5"/>
<text text-anchor="middle" x="81.5" y="-56.5" font-family="Helvetica,sans-Serif" font-size="10.00">SocketReadJob</text>
<polyline fill="none" stroke="black" points="28,-49.5 135,-49.5 "/>
<text text-anchor="start" x="36" y="-37.5" font-family="Helvetica,sans-Serif" font-size="10.00">+ m_pstate</text>
<polyline fill="none" stroke="black" points="28,-30.5 135,-30.5 "/>
<text text-anchor="start" x="36" y="-18.5" font-family="Helvetica,sans-Serif" font-size="10.00">+ SocketReadJob()</text>
<text text-anchor="start" x="36" y="-7.5" font-family="Helvetica,sans-Serif" font-size="10.00">+ run()</text>
</a>
</g>
</g>
<!-- Node2 -->
<g id="node2" class="node">
<title>Node2</title>
<g id="a_node2"><a xlink:href="classJobInterface.html" target="_top" xlink:title=" ">
<polygon fill="white" stroke="black" points="0,-292.5 0,-415.5 131,-415.5 131,-292.5 0,-292.5"/>
<text text-anchor="middle" x="65.5" y="-403.5" font-family="Helvetica,sans-Serif" font-size="10.00">JobInterface</text>
<polyline fill="none" stroke="black" points="0,-396.5 131,-396.5 "/>
<text text-anchor="start" x="8" y="-384.5" font-family="Helvetica,sans-Serif" font-size="10.00">+ m_job_id</text>
<text text-anchor="start" x="8" y="-373.5" font-family="Helvetica,sans-Serif" font-size="10.00">+ m_job_description</text>
<polyline fill="none" stroke="black" points="0,-366.5 131,-366.5 "/>
<text text-anchor="start" x="8" y="-354.5" font-family="Helvetica,sans-Serif" font-size="10.00">+ get_job_description()</text>
<text text-anchor="start" x="8" y="-343.5" font-family="Helvetica,sans-Serif" font-size="10.00">+ JobInterface()</text>
<text text-anchor="start" x="8" y="-332.5" font-family="Helvetica,sans-Serif" font-size="10.00">+ set_job_description()</text>
<text text-anchor="start" x="8" y="-321.5" font-family="Helvetica,sans-Serif" font-size="10.00">+ get_job_id()</text>
<text text-anchor="start" x="8" y="-310.5" font-family="Helvetica,sans-Serif" font-size="10.00">+ run()</text>
<text text-anchor="start" x="8" y="-299.5" font-family="Helvetica,sans-Serif" font-size="10.00">+ ~JobInterface()</text>
</a>
</g>
</g>
<!-- Node2&#45;&gt;Node1 -->
<g id="edge1" class="edge">
<title>Node2&#45;&gt;Node1</title>
<path fill="none" stroke="midnightblue" d="M69.07,-282.17C72.42,-215.68 77.28,-119.15 79.82,-68.83"/>
<polygon fill="none" stroke="midnightblue" points="65.57,-281.99 68.57,-292.16 72.56,-282.35 65.57,-281.99"/>
</g>
<!-- Node3 -->
<g id="node3" class="node">
<title>Node3</title>
<g id="a_node3"><a xlink:href="classOrchestrator.html" target="_top" xlink:title=" ">
<polygon fill="white" stroke="black" points="149,-116.5 149,-591.5 326,-591.5 326,-116.5 149,-116.5"/>
<text text-anchor="middle" x="237.5" y="-579.5" font-family="Helvetica,sans-Serif" font-size="10.00">Orchestrator</text>
<polyline fill="none" stroke="black" points="149,-572.5 326,-572.5 "/>
<text text-anchor="start" x="157" y="-560.5" font-family="Helvetica,sans-Serif" font-size="10.00">+ m_server_socket</text>
<text text-anchor="start" x="157" y="-549.5" font-family="Helvetica,sans-Serif" font-size="10.00">+ m_all_sockets</text>
<text text-anchor="start" x="157" y="-538.5" font-family="Helvetica,sans-Serif" font-size="10.00">+ m_all_sockets_mtx</text>
<text text-anchor="start" x="157" y="-527.5" font-family="Helvetica,sans-Serif" font-size="10.00">+ m_epoll_sockets</text>
<text text-anchor="start" x="157" y="-516.5" font-family="Helvetica,sans-Serif" font-size="10.00">+ m_epoll_sockets_mtx</text>
<text text-anchor="start" x="157" y="-505.5" font-family="Helvetica,sans-Serif" font-size="10.00">+ m_processing_sockets</text>
<text text-anchor="start" x="157" y="-494.5" font-family="Helvetica,sans-Serif" font-size="10.00">+ m_processing_sockets_mtx</text>
<text text-anchor="start" x="157" y="-483.5" font-family="Helvetica,sans-Serif" font-size="10.00">+ m_write_sockets</text>
<text text-anchor="start" x="157" y="-472.5" font-family="Helvetica,sans-Serif" font-size="10.00">+ m_write_sockets_mtx</text>
<text text-anchor="start" x="157" y="-461.5" font-family="Helvetica,sans-Serif" font-size="10.00">+ m_is_destroying</text>
<text text-anchor="start" x="157" y="-450.5" font-family="Helvetica,sans-Serif" font-size="10.00">+ m_accepting_thread_id</text>
<text text-anchor="start" x="157" y="-439.5" font-family="Helvetica,sans-Serif" font-size="10.00">+ m_epoll_thread_id</text>
<text text-anchor="start" x="157" y="-428.5" font-family="Helvetica,sans-Serif" font-size="10.00">+ m_epoll_fd</text>
<polyline fill="none" stroke="black" points="149,-421.5 326,-421.5 "/>
<text text-anchor="start" x="157" y="-409.5" font-family="Helvetica,sans-Serif" font-size="10.00">+ Orchestrator()</text>
<text text-anchor="start" x="157" y="-398.5" font-family="Helvetica,sans-Serif" font-size="10.00">+ ~Orchestrator()</text>
<text text-anchor="start" x="157" y="-387.5" font-family="Helvetica,sans-Serif" font-size="10.00">+ create_server_socket()</text>
<text text-anchor="start" x="157" y="-376.5" font-family="Helvetica,sans-Serif" font-size="10.00">+ spawn_accepting_thread()</text>
<text text-anchor="start" x="157" y="-365.5" font-family="Helvetica,sans-Serif" font-size="10.00">+ accepting_thread_loop()</text>
<text text-anchor="start" x="157" y="-354.5" font-family="Helvetica,sans-Serif" font-size="10.00">+ spawn_epoll_thread()</text>
<text text-anchor="start" x="157" y="-343.5" font-family="Helvetica,sans-Serif" font-size="10.00">+ epoll_thread_loop()</text>
<text text-anchor="start" x="157" y="-332.5" font-family="Helvetica,sans-Serif" font-size="10.00">+ wakeup_epoll_thread()</text>
<text text-anchor="start" x="157" y="-321.5" font-family="Helvetica,sans-Serif" font-size="10.00">+ create_epoll_fd()</text>
<text text-anchor="start" x="157" y="-310.5" font-family="Helvetica,sans-Serif" font-size="10.00">+ remove_socket()</text>
<text text-anchor="start" x="157" y="-299.5" font-family="Helvetica,sans-Serif" font-size="10.00">+ epoll_rearm()</text>
<text text-anchor="start" x="157" y="-288.5" font-family="Helvetica,sans-Serif" font-size="10.00">+ epoll_rearm_unsafe()</text>
<text text-anchor="start" x="157" y="-277.5" font-family="Helvetica,sans-Serif" font-size="10.00">+ epoll_empty()</text>
<text text-anchor="start" x="157" y="-266.5" font-family="Helvetica,sans-Serif" font-size="10.00">+ epoll_empty_unsafe()</text>
<text text-anchor="start" x="157" y="-255.5" font-family="Helvetica,sans-Serif" font-size="10.00">+ create_processing_job()</text>
<text text-anchor="start" x="157" y="-244.5" font-family="Helvetica,sans-Serif" font-size="10.00">+ add_to_parse_queue()</text>
<text text-anchor="start" x="157" y="-233.5" font-family="Helvetica,sans-Serif" font-size="10.00">+ add_to_write_queue()</text>
<text text-anchor="start" x="157" y="-222.5" font-family="Helvetica,sans-Serif" font-size="10.00">+ do_operation()</text>
<text text-anchor="start" x="157" y="-211.5" font-family="Helvetica,sans-Serif" font-size="10.00">+ do_get()</text>
<text text-anchor="start" x="157" y="-200.5" font-family="Helvetica,sans-Serif" font-size="10.00">+ do_set()</text>
<text text-anchor="start" x="157" y="-189.5" font-family="Helvetica,sans-Serif" font-size="10.00">+ do_del()</text>
<text text-anchor="start" x="157" y="-178.5" font-family="Helvetica,sans-Serif" font-size="10.00">+ do_del_internal()</text>
<text text-anchor="start" x="157" y="-167.5" font-family="Helvetica,sans-Serif" font-size="10.00">+ is_valid_command()</text>
<text text-anchor="start" x="157" y="-156.5" font-family="Helvetica,sans-Serif" font-size="10.00">+ add_to_epoll_queue()</text>
<text text-anchor="start" x="157" y="-145.5" font-family="Helvetica,sans-Serif" font-size="10.00">+ get_partition()</text>
<text text-anchor="start" x="157" y="-134.5" font-family="Helvetica,sans-Serif" font-size="10.00">+ accepting_thread_pthread_fn()</text>
<text text-anchor="start" x="157" y="-123.5" font-family="Helvetica,sans-Serif" font-size="10.00">+ epoll_thread_pthread_fn()</text>
</a>
</g>
</g>
<!-- Node3&#45;&gt;Node1 -->
<g id="edge2" class="edge">
<title>Node3&#45;&gt;Node1</title>
<path fill="none" stroke="#404040" d="M148.95,-133.56C145.85,-127.6 142.7,-121.74 139.5,-116 132.5,-103.43 123.89,-90.49 115.47,-78.77"/>
<polygon fill="none" stroke="#404040" points="115.26,-78.48 108.49,-76.01 108.16,-68.81 114.94,-71.28 115.26,-78.48"/>
<text text-anchor="middle" x="174.5" y="-90" font-family="Helvetica,sans-Serif" font-size="10.00"> +m_porchestrator</text>
</g>
<!-- Node4 -->
<g id="node4" class="node">
<title>Node4</title>
<g id="a_node4"><a xlink:href="classThreadPool.html" target="_top" xlink:title=" ">
<polygon fill="white" stroke="black" points="73.5,-672.5 73.5,-883.5 225.5,-883.5 225.5,-672.5 73.5,-672.5"/>
<text text-anchor="middle" x="149.5" y="-871.5" font-family="Helvetica,sans-Serif" font-size="10.00">ThreadPool</text>
<polyline fill="none" stroke="black" points="73.5,-864.5 225.5,-864.5 "/>
<text text-anchor="start" x="81.5" y="-852.5" font-family="Helvetica,sans-Serif" font-size="10.00">+ m_num_threads</text>
<text text-anchor="start" x="81.5" y="-841.5" font-family="Helvetica,sans-Serif" font-size="10.00">+ m_threads</text>
<text text-anchor="start" x="81.5" y="-830.5" font-family="Helvetica,sans-Serif" font-size="10.00">+ m_job_queue</text>
<text text-anchor="start" x="81.5" y="-819.5" font-family="Helvetica,sans-Serif" font-size="10.00">+ m_job_queue_mutex</text>
<text text-anchor="start" x="81.5" y="-808.5" font-family="Helvetica,sans-Serif" font-size="10.00">+ m_job_queue_cond</text>
<text text-anchor="start" x="81.5" y="-797.5" font-family="Helvetica,sans-Serif" font-size="10.00">+ m_is_destroying</text>
<text text-anchor="start" x="81.5" y="-786.5" font-family="Helvetica,sans-Serif" font-size="10.00">+ m_job_sequence_number</text>
<text text-anchor="start" x="81.5" y="-775.5" font-family="Helvetica,sans-Serif" font-size="10.00">+ m_is_debug</text>
<text text-anchor="start" x="81.5" y="-764.5" font-family="Helvetica,sans-Serif" font-size="10.00">+ m_is_debug_verbose</text>
<polyline fill="none" stroke="black" points="73.5,-757.5 225.5,-757.5 "/>
<text text-anchor="start" x="81.5" y="-745.5" font-family="Helvetica,sans-Serif" font-size="10.00">+ ThreadPool()</text>
<text text-anchor="start" x="81.5" y="-734.5" font-family="Helvetica,sans-Serif" font-size="10.00">+ add_thread()</text>
<text text-anchor="start" x="81.5" y="-723.5" font-family="Helvetica,sans-Serif" font-size="10.00">+ loop()</text>
<text text-anchor="start" x="81.5" y="-712.5" font-family="Helvetica,sans-Serif" font-size="10.00">+ destroy()</text>
<text text-anchor="start" x="81.5" y="-701.5" font-family="Helvetica,sans-Serif" font-size="10.00">+ add_job()</text>
<text text-anchor="start" x="81.5" y="-690.5" font-family="Helvetica,sans-Serif" font-size="10.00">+ ~ThreadPool()</text>
<text text-anchor="start" x="81.5" y="-679.5" font-family="Helvetica,sans-Serif" font-size="10.00">+ thread_start_routine()</text>
</a>
</g>
</g>
<!-- Node4&#45;&gt;Node3 -->
<g id="edge3" class="edge">
<title>Node4&#45;&gt;Node3</title>
<path fill="none" stroke="#404040" d="M144.96,-672.32C145.51,-651.57 147.12,-630.01 150.5,-610 150.87,-607.8 151.26,-605.6 151.66,-603.39"/>
<polygon fill="none" stroke="#404040" points="151.68,-603.32 148.89,-596.67 153.96,-591.54 156.75,-598.19 151.68,-603.32"/>
<text text-anchor="middle" x="227" y="-646" font-family="Helvetica,sans-Serif" font-size="10.00"> +m_write_threadpool</text>
<text text-anchor="middle" x="227" y="-635" font-family="Helvetica,sans-Serif" font-size="10.00">+m_processing_threadpool</text>
<text text-anchor="middle" x="227" y="-624" font-family="Helvetica,sans-Serif" font-size="10.00">+m_parse_and_run_threadpool</text>
<text text-anchor="middle" x="227" y="-613" font-family="Helvetica,sans-Serif" font-size="10.00">+m_read_threadpool</text>
</g>
<!-- Node5 -->
<g id="node5" class="node">
<title>Node5</title>
<g id="a_node5"><a xlink:href="classDataStore.html" target="_top" xlink:title=" ">
<polygon fill="white" stroke="black" points="293,-722 293,-834 358,-834 358,-722 293,-722"/>
<text text-anchor="middle" x="325.5" y="-822" font-family="Helvetica,sans-Serif" font-size="10.00">DataStore</text>
<polyline fill="none" stroke="black" points="293,-815 358,-815 "/>
<text text-anchor="middle" x="325.5" y="-803" font-family="Helvetica,sans-Serif" font-size="10.00"> </text>
<polyline fill="none" stroke="black" points="293,-796 358,-796 "/>
<text text-anchor="start" x="301" y="-784" font-family="Helvetica,sans-Serif" font-size="10.00">+ set()</text>
<text text-anchor="start" x="301" y="-773" font-family="Helvetica,sans-Serif" font-size="10.00">+ del()</text>
<text text-anchor="start" x="301" y="-762" font-family="Helvetica,sans-Serif" font-size="10.00">+ get()</text>
<text text-anchor="start" x="301" y="-751" font-family="Helvetica,sans-Serif" font-size="10.00">+ set()</text>
<text text-anchor="start" x="301" y="-740" font-family="Helvetica,sans-Serif" font-size="10.00">+ del()</text>
<text text-anchor="start" x="301" y="-729" font-family="Helvetica,sans-Serif" font-size="10.00">+ get()</text>
</a>
</g>
</g>
<!-- Node5&#45;&gt;Node3 -->
<g id="edge4" class="edge">
<title>Node5&#45;&gt;Node3</title>
<path fill="none" stroke="#404040" d="M319.95,-721.82C316.23,-689.15 310.7,-647.03 303.5,-610 303.08,-607.82 302.65,-605.64 302.21,-603.44"/>
<polygon fill="none" stroke="#404040" points="302.2,-603.39 297.08,-598.31 299.8,-591.63 304.92,-596.71 302.2,-603.39"/>
<text text-anchor="middle" x="347" y="-629.5" font-family="Helvetica,sans-Serif" font-size="10.00"> +m_datastore</text>
</g>
</g>
</svg>
