<?xml version="1.0" encoding="UTF-8" standalone="no"?>
<!DOCTYPE svg PUBLIC "-//W3C//DTD SVG 1.1//EN"
 "http://www.w3.org/Graphics/SVG/1.1/DTD/svg11.dtd">
<!-- Generated by graphviz version 2.43.0 (0)
 -->
<!-- Title: RespParser Pages: 1 -->
<svg width="161pt" height="303pt"
 viewBox="0.00 0.00 161.00 303.00" xmlns="http://www.w3.org/2000/svg" xmlns:xlink="http://www.w3.org/1999/xlink">
<g id="graph0" class="graph" transform="scale(1 1) rotate(0) translate(4 299)">
<title>RespParser</title>
<polygon fill="white" stroke="transparent" points="-4,4 -4,-299 157,-299 157,4 -4,4"/>
<!-- Node1 -->
<g id="node1" class="node">
<title>Node1</title>
<g id="a_node1"><a xlink:title=" ">
<polygon fill="#bfbfbf" stroke="black" points="0,-0.5 0,-156.5 153,-156.5 153,-0.5 0,-0.5"/>
<text text-anchor="middle" x="76.5" y="-144.5" font-family="Helvetica,sans-Serif" font-size="10.00">RespParser</text>
<polyline fill="none" stroke="black" points="0,-137.5 153,-137.5 "/>
<text text-anchor="start" x="8" y="-125.5" font-family="Helvetica,sans-Serif" font-size="10.00">+ m_parse_string</text>
<polyline fill="none" stroke="black" points="0,-118.5 153,-118.5 "/>
<text text-anchor="start" x="8" y="-106.5" font-family="Helvetica,sans-Serif" font-size="10.00">+ RespParser()</text>
<text text-anchor="start" x="8" y="-95.5" font-family="Helvetica,sans-Serif" font-size="10.00">+ get_length()</text>
<text text-anchor="start" x="8" y="-84.5" font-family="Helvetica,sans-Serif" font-size="10.00">+ get_type()</text>
<text text-anchor="start" x="8" y="-73.5" font-family="Helvetica,sans-Serif" font-size="10.00">+ skip_crlf()</text>
<text text-anchor="start" x="8" y="-62.5" font-family="Helvetica,sans-Serif" font-size="10.00">+ get_bulk_string_internal()</text>
<text text-anchor="start" x="8" y="-51.5" font-family="Helvetica,sans-Serif" font-size="10.00">+ get_bulk_string_object()</text>
<text text-anchor="start" x="8" y="-40.5" font-family="Helvetica,sans-Serif" font-size="10.00">+ get_string_internal()</text>
<text text-anchor="start" x="8" y="-29.5" font-family="Helvetica,sans-Serif" font-size="10.00">+ get_string_object()</text>
<text text-anchor="start" x="8" y="-18.5" font-family="Helvetica,sans-Serif" font-size="10.00">+ get_array_object()</text>
<text text-anchor="start" x="8" y="-7.5" font-family="Helvetica,sans-Serif" font-size="10.00">+ get_generic_object()</text>
</a>
</g>
</g>
<!-- Node2 -->
<g id="node2" class="node">
<title>Node2</title>
<g id="a_node2"><a xlink:href="classRespParserState.html" target="_top" xlink:title=" ">
<polygon fill="white" stroke="black" points="28,-204.5 28,-294.5 125,-294.5 125,-204.5 28,-204.5"/>
<text text-anchor="middle" x="76.5" y="-282.5" font-family="Helvetica,sans-Serif" font-size="10.00">RespParserState</text>
<polyline fill="none" stroke="black" points="28,-275.5 125,-275.5 "/>
<text text-anchor="start" x="36" y="-263.5" font-family="Helvetica,sans-Serif" font-size="10.00">+ begin</text>
<text text-anchor="start" x="36" y="-252.5" font-family="Helvetica,sans-Serif" font-size="10.00">+ end</text>
<text text-anchor="start" x="36" y="-241.5" font-family="Helvetica,sans-Serif" font-size="10.00">+ current</text>
<text text-anchor="start" x="36" y="-230.5" font-family="Helvetica,sans-Serif" font-size="10.00">+ parse_error</text>
<polyline fill="none" stroke="black" points="28,-223.5 125,-223.5 "/>
<text text-anchor="middle" x="76.5" y="-211.5" font-family="Helvetica,sans-Serif" font-size="10.00"> </text>
</a>
</g>
</g>
<!-- Node2&#45;&gt;Node1 -->
<g id="edge1" class="edge">
<title>Node2&#45;&gt;Node1</title>
<path fill="none" stroke="#404040" d="M76.5,-204.1C76.5,-193.17 76.5,-181.07 76.5,-168.85"/>
<polygon fill="none" stroke="#404040" points="76.5,-168.61 72.5,-162.61 76.5,-156.61 80.5,-162.61 76.5,-168.61"/>
<text text-anchor="middle" x="102.5" y="-178" font-family="Helvetica,sans-Serif" font-size="10.00"> +m_state</text>
</g>
</g>
</svg>
