<?xml version="1.0" encoding="UTF-8" standalone="no"?>
<!DOCTYPE svg PUBLIC "-//W3C//DTD SVG 1.1//EN"
 "http://www.w3.org/Graphics/SVG/1.1/DTD/svg11.dtd">
<!-- Generated by graphviz version 2.43.0 (0)
 -->
<!-- Title: AbstractRespObject Pages: 1 -->
<svg width="542pt" height="237pt"
 viewBox="0.00 0.00 542.00 237.00" xmlns="http://www.w3.org/2000/svg" xmlns:xlink="http://www.w3.org/1999/xlink">
<g id="graph0" class="graph" transform="scale(1 1) rotate(0) translate(4 233)">
<title>AbstractRespObject</title>
<polygon fill="white" stroke="transparent" points="-4,4 -4,-233 538,-233 538,4 -4,4"/>
<!-- Node1 -->
<g id="node1" class="node">
<title>Node1</title>
<g id="a_node1"><a xlink:title=" ">
<polygon fill="#bfbfbf" stroke="black" points="217.5,-138.5 217.5,-228.5 330.5,-228.5 330.5,-138.5 217.5,-138.5"/>
<text text-anchor="middle" x="274" y="-216.5" font-family="Helvetica,sans-Serif" font-size="10.00">AbstractRespObject</text>
<polyline fill="none" stroke="black" points="217.5,-209.5 330.5,-209.5 "/>
<text text-anchor="start" x="225.5" y="-197.5" font-family="Helvetica,sans-Serif" font-size="10.00">+ m_is_aggregate</text>
<text text-anchor="start" x="225.5" y="-186.5" font-family="Helvetica,sans-Serif" font-size="10.00">+ m_datatype</text>
<polyline fill="none" stroke="black" points="217.5,-179.5 330.5,-179.5 "/>
<text text-anchor="start" x="225.5" y="-167.5" font-family="Helvetica,sans-Serif" font-size="10.00">+ to_string()</text>
<text text-anchor="start" x="225.5" y="-156.5" font-family="Helvetica,sans-Serif" font-size="10.00">+ serialize()</text>
<text text-anchor="start" x="225.5" y="-145.5" font-family="Helvetica,sans-Serif" font-size="10.00">+ get_type()</text>
</a>
</g>
</g>
<!-- Node2 -->
<g id="node2" class="node">
<title>Node2</title>
<g id="a_node2"><a xlink:href="classRespArray.html" target="_top" xlink:title=" ">
<polygon fill="white" stroke="black" points="0,-0.5 0,-101.5 86,-101.5 86,-0.5 0,-0.5"/>
<text text-anchor="middle" x="43" y="-89.5" font-family="Helvetica,sans-Serif" font-size="10.00">RespArray</text>
<polyline fill="none" stroke="black" points="0,-82.5 86,-82.5 "/>
<text text-anchor="start" x="8" y="-70.5" font-family="Helvetica,sans-Serif" font-size="10.00">+ m_value</text>
<polyline fill="none" stroke="black" points="0,-63.5 86,-63.5 "/>
<text text-anchor="start" x="8" y="-51.5" font-family="Helvetica,sans-Serif" font-size="10.00">+ RespArray()</text>
<text text-anchor="start" x="8" y="-40.5" font-family="Helvetica,sans-Serif" font-size="10.00">+ to_string()</text>
<text text-anchor="start" x="8" y="-29.5" font-family="Helvetica,sans-Serif" font-size="10.00">+ append()</text>
<text text-anchor="start" x="8" y="-18.5" font-family="Helvetica,sans-Serif" font-size="10.00">+ serialize()</text>
<text text-anchor="start" x="8" y="-7.5" font-family="Helvetica,sans-Serif" font-size="10.00">+ get_array()</text>
</a>
</g>
</g>
<!-- Node1&#45;&gt;Node2 -->
<g id="edge1" class="edge">
<title>Node1&#45;&gt;Node2</title>
<path fill="none" stroke="midnightblue" d="M207.72,-159.03C172.68,-145.09 129.84,-125.54 95,-102 91.99,-99.97 89,-97.75 86.05,-95.42"/>
<polygon fill="none" stroke="midnightblue" points="206.79,-162.42 217.38,-162.81 209.34,-155.91 206.79,-162.42"/>
</g>
<!-- Node3 -->
<g id="node3" class="node">
<title>Node3</title>
<g id="a_node3"><a xlink:href="classRespBulkString.html" target="_top" xlink:title=" ">
<polygon fill="white" stroke="black" points="104,-0.5 104,-101.5 214,-101.5 214,-0.5 104,-0.5"/>
<text text-anchor="middle" x="159" y="-89.5" font-family="Helvetica,sans-Serif" font-size="10.00">RespBulkString</text>
<polyline fill="none" stroke="black" points="104,-82.5 214,-82.5 "/>
<text text-anchor="start" x="112" y="-70.5" font-family="Helvetica,sans-Serif" font-size="10.00">+ m_value</text>
<text text-anchor="start" x="112" y="-59.5" font-family="Helvetica,sans-Serif" font-size="10.00">+ m_isnull</text>
<polyline fill="none" stroke="black" points="104,-52.5 214,-52.5 "/>
<text text-anchor="start" x="112" y="-40.5" font-family="Helvetica,sans-Serif" font-size="10.00">+ RespBulkString()</text>
<text text-anchor="start" x="112" y="-29.5" font-family="Helvetica,sans-Serif" font-size="10.00">+ set_null()</text>
<text text-anchor="start" x="112" y="-18.5" font-family="Helvetica,sans-Serif" font-size="10.00">+ to_string()</text>
<text text-anchor="start" x="112" y="-7.5" font-family="Helvetica,sans-Serif" font-size="10.00">+ serialize()</text>
</a>
</g>
</g>
<!-- Node1&#45;&gt;Node3 -->
<g id="edge2" class="edge">
<title>Node1&#45;&gt;Node3</title>
<path fill="none" stroke="midnightblue" d="M228.36,-130.71C219.89,-121.09 211.05,-111.07 202.64,-101.52"/>
<polygon fill="none" stroke="midnightblue" points="225.83,-133.13 235.07,-138.32 231.08,-128.5 225.83,-133.13"/>
</g>
<!-- Node4 -->
<g id="node4" class="node">
<title>Node4</title>
<g id="a_node4"><a xlink:href="classRespError.html" target="_top" xlink:title=" ">
<polygon fill="white" stroke="black" points="232.5,-11.5 232.5,-90.5 315.5,-90.5 315.5,-11.5 232.5,-11.5"/>
<text text-anchor="middle" x="274" y="-78.5" font-family="Helvetica,sans-Serif" font-size="10.00">RespError</text>
<polyline fill="none" stroke="black" points="232.5,-71.5 315.5,-71.5 "/>
<text text-anchor="start" x="240.5" y="-59.5" font-family="Helvetica,sans-Serif" font-size="10.00">+ m_value</text>
<polyline fill="none" stroke="black" points="232.5,-52.5 315.5,-52.5 "/>
<text text-anchor="start" x="240.5" y="-40.5" font-family="Helvetica,sans-Serif" font-size="10.00">+ RespError()</text>
<text text-anchor="start" x="240.5" y="-29.5" font-family="Helvetica,sans-Serif" font-size="10.00">+ to_string()</text>
<text text-anchor="start" x="240.5" y="-18.5" font-family="Helvetica,sans-Serif" font-size="10.00">+ serialize()</text>
</a>
</g>
</g>
<!-- Node1&#45;&gt;Node4 -->
<g id="edge3" class="edge">
<title>Node1&#45;&gt;Node4</title>
<path fill="none" stroke="#8b1a1a" d="M274,-128.02C274,-115.55 274,-102.55 274,-90.89"/>
<polygon fill="none" stroke="#8b1a1a" points="270.5,-128.32 274,-138.32 277.5,-128.32 270.5,-128.32"/>
</g>
<!-- Node5 -->
<g id="node5" class="node">
<title>Node5</title>
<g id="a_node5"><a xlink:href="classRespInteger.html" target="_top" xlink:title=" ">
<polygon fill="white" stroke="black" points="334,-6 334,-96 428,-96 428,-6 334,-6"/>
<text text-anchor="middle" x="381" y="-84" font-family="Helvetica,sans-Serif" font-size="10.00">RespInteger</text>
<polyline fill="none" stroke="black" points="334,-77 428,-77 "/>
<text text-anchor="start" x="342" y="-65" font-family="Helvetica,sans-Serif" font-size="10.00">+ m_value</text>
<polyline fill="none" stroke="black" points="334,-58 428,-58 "/>
<text text-anchor="start" x="342" y="-46" font-family="Helvetica,sans-Serif" font-size="10.00">+ RespInteger()</text>
<text text-anchor="start" x="342" y="-35" font-family="Helvetica,sans-Serif" font-size="10.00">+ to_string()</text>
<text text-anchor="start" x="342" y="-24" font-family="Helvetica,sans-Serif" font-size="10.00">+ serialize()</text>
<text text-anchor="start" x="342" y="-13" font-family="Helvetica,sans-Serif" font-size="10.00">+ set_value()</text>
</a>
</g>
</g>
<!-- Node1&#45;&gt;Node5 -->
<g id="edge4" class="edge">
<title>Node1&#45;&gt;Node5</title>
<path fill="none" stroke="midnightblue" d="M316.6,-130.54C325.95,-119.15 335.75,-107.19 344.81,-96.14"/>
<polygon fill="none" stroke="midnightblue" points="313.86,-128.37 310.23,-138.32 319.27,-132.8 313.86,-128.37"/>
</g>
<!-- Node6 -->
<g id="node6" class="node">
<title>Node6</title>
<g id="a_node6"><a xlink:href="classRespString.html" target="_top" xlink:title=" ">
<polygon fill="white" stroke="black" points="446,-11.5 446,-90.5 534,-90.5 534,-11.5 446,-11.5"/>
<text text-anchor="middle" x="490" y="-78.5" font-family="Helvetica,sans-Serif" font-size="10.00">RespString</text>
<polyline fill="none" stroke="black" points="446,-71.5 534,-71.5 "/>
<text text-anchor="start" x="454" y="-59.5" font-family="Helvetica,sans-Serif" font-size="10.00">+ m_value</text>
<polyline fill="none" stroke="black" points="446,-52.5 534,-52.5 "/>
<text text-anchor="start" x="454" y="-40.5" font-family="Helvetica,sans-Serif" font-size="10.00">+ RespString()</text>
<text text-anchor="start" x="454" y="-29.5" font-family="Helvetica,sans-Serif" font-size="10.00">+ to_string()</text>
<text text-anchor="start" x="454" y="-18.5" font-family="Helvetica,sans-Serif" font-size="10.00">+ serialize()</text>
</a>
</g>
</g>
<!-- Node1&#45;&gt;Node6 -->
<g id="edge5" class="edge">
<title>Node1&#45;&gt;Node6</title>
<path fill="none" stroke="midnightblue" d="M339.96,-155.36C370.65,-141.39 406.94,-122.9 437,-102 441.99,-98.53 446.96,-94.61 451.76,-90.52"/>
<polygon fill="none" stroke="midnightblue" points="338.31,-152.26 330.62,-159.55 341.18,-158.64 338.31,-152.26"/>
</g>
</g>
</svg>
