<?xml version="1.0" encoding="UTF-8" standalone="no"?>
<!DOCTYPE svg PUBLIC "-//W3C//DTD SVG 1.1//EN"
 "http://www.w3.org/Graphics/SVG/1.1/DTD/svg11.dtd">
<!-- Generated by graphviz version 2.43.0 (0)
 -->
<!-- Title: Orchestrator::epoll_thread_loop Pages: 1 -->
<svg width="408pt" height="176pt"
 viewBox="0.00 0.00 408.00 176.00" xmlns="http://www.w3.org/2000/svg" xmlns:xlink="http://www.w3.org/1999/xlink">
<g id="graph0" class="graph" transform="scale(1 1) rotate(0) translate(4 172)">
<title>Orchestrator::epoll_thread_loop</title>
<polygon fill="white" stroke="transparent" points="-4,4 -4,-172 404,-172 404,4 -4,4"/>
<!-- Node1 -->
<g id="node1" class="node">
<title>Node1</title>
<g id="a_node1"><a xlink:title="Loop and call epoll, and send ready sockets to workers.">
<polygon fill="#bfbfbf" stroke="black" points="0,-66.5 0,-96.5 107,-96.5 107,-66.5 0,-66.5"/>
<text text-anchor="start" x="8" y="-84.5" font-family="Helvetica,sans-Serif" font-size="10.00">Orchestrator::epoll</text>
<text text-anchor="middle" x="53.5" y="-73.5" font-family="Helvetica,sans-Serif" font-size="10.00">_thread_loop</text>
</a>
</g>
</g>
<!-- Node2 -->
<g id="node2" class="node">
<title>Node2</title>
<g id="a_node2"><a xlink:href="classOrchestrator.html#a71445cd8bc61c162a51f42bddff1d6ba" target="_top" xlink:title="creates a processing job for a ready to read fd">
<polygon fill="white" stroke="black" points="143,-137.5 143,-167.5 257,-167.5 257,-137.5 143,-137.5"/>
<text text-anchor="start" x="151" y="-155.5" font-family="Helvetica,sans-Serif" font-size="10.00">Orchestrator::create</text>
<text text-anchor="middle" x="200" y="-144.5" font-family="Helvetica,sans-Serif" font-size="10.00">_processing_job</text>
</a>
</g>
</g>
<!-- Node1&#45;&gt;Node2 -->
<g id="edge1" class="edge">
<title>Node1&#45;&gt;Node2</title>
<path fill="none" stroke="midnightblue" d="M81.71,-96.7C99.06,-106.21 122.13,-118.51 143,-128.5 146.35,-130.1 149.82,-131.71 153.34,-133.31"/>
<polygon fill="midnightblue" stroke="midnightblue" points="152.09,-136.58 162.65,-137.45 154.94,-130.19 152.09,-136.58"/>
</g>
<!-- Node3 -->
<g id="node3" class="node">
<title>Node3</title>
<g id="a_node3"><a xlink:href="classOrchestrator.html#aab8ddf836b812add8fab065b851946f9" target="_top" xlink:title="remove all monitoring file descriptors from epoll">
<polygon fill="white" stroke="black" points="146.5,-88.5 146.5,-118.5 253.5,-118.5 253.5,-88.5 146.5,-88.5"/>
<text text-anchor="start" x="154.5" y="-106.5" font-family="Helvetica,sans-Serif" font-size="10.00">Orchestrator::epoll</text>
<text text-anchor="middle" x="200" y="-95.5" font-family="Helvetica,sans-Serif" font-size="10.00">_empty</text>
</a>
</g>
</g>
<!-- Node1&#45;&gt;Node3 -->
<g id="edge2" class="edge">
<title>Node1&#45;&gt;Node3</title>
<path fill="none" stroke="midnightblue" d="M107.08,-89.5C116.54,-90.95 126.49,-92.46 136.21,-93.94"/>
<polygon fill="midnightblue" stroke="midnightblue" points="135.81,-97.42 146.22,-95.46 136.86,-90.5 135.81,-97.42"/>
</g>
<!-- Node4 -->
<g id="node4" class="node">
<title>Node4</title>
<g id="a_node4"><a xlink:href="classOrchestrator.html#af0f01e3500b84b99ee76dd72503b5bf1" target="_top" xlink:title="remove all monitoring file descriptors from epoll This is the unsafe version of the function,...">
<polygon fill="white" stroke="black" points="293,-68.5 293,-98.5 400,-98.5 400,-68.5 293,-68.5"/>
<text text-anchor="start" x="301" y="-86.5" font-family="Helvetica,sans-Serif" font-size="10.00">Orchestrator::epoll</text>
<text text-anchor="middle" x="346.5" y="-75.5" font-family="Helvetica,sans-Serif" font-size="10.00">_empty_unsafe</text>
</a>
</g>
</g>
<!-- Node1&#45;&gt;Node4 -->
<g id="edge4" class="edge">
<title>Node1&#45;&gt;Node4</title>
<path fill="none" stroke="midnightblue" d="M107.38,-80.04C148.24,-79.14 206.21,-78.35 257,-79.5 265.29,-79.69 274.01,-79.97 282.62,-80.31"/>
<polygon fill="midnightblue" stroke="midnightblue" points="282.5,-83.81 292.63,-80.72 282.78,-76.81 282.5,-83.81"/>
</g>
<!-- Node5 -->
<g id="node5" class="node">
<title>Node5</title>
<g id="a_node5"><a xlink:href="classOrchestrator.html#a000d29b799ace8712b6b8b4af774e38e" target="_top" xlink:title="rebuild the epoll monitor from the set of fd&#39;s">
<polygon fill="white" stroke="black" points="146.5,-0.5 146.5,-30.5 253.5,-30.5 253.5,-0.5 146.5,-0.5"/>
<text text-anchor="start" x="154.5" y="-18.5" font-family="Helvetica,sans-Serif" font-size="10.00">Orchestrator::epoll</text>
<text text-anchor="middle" x="200" y="-7.5" font-family="Helvetica,sans-Serif" font-size="10.00">_rearm</text>
</a>
</g>
</g>
<!-- Node1&#45;&gt;Node5 -->
<g id="edge5" class="edge">
<title>Node1&#45;&gt;Node5</title>
<path fill="none" stroke="midnightblue" d="M87.65,-66.36C108.21,-56.97 134.82,-44.82 156.86,-34.75"/>
<polygon fill="midnightblue" stroke="midnightblue" points="158.36,-37.91 166,-30.57 155.45,-31.54 158.36,-37.91"/>
</g>
<!-- Node3&#45;&gt;Node4 -->
<g id="edge3" class="edge">
<title>Node3&#45;&gt;Node4</title>
<path fill="none" stroke="midnightblue" d="M253.58,-96.22C263.04,-94.91 272.99,-93.54 282.71,-92.19"/>
<polygon fill="midnightblue" stroke="midnightblue" points="283.29,-95.64 292.72,-90.81 282.33,-88.71 283.29,-95.64"/>
</g>
<!-- Node6 -->
<g id="node6" class="node">
<title>Node6</title>
<g id="a_node6"><a xlink:href="classOrchestrator.html#a672e18c130c94fdbe11bf01ea3f1ce57" target="_top" xlink:title="rebuild the epoll monitor from the set of fd&#39;s">
<polygon fill="white" stroke="black" points="293,-0.5 293,-30.5 400,-30.5 400,-0.5 293,-0.5"/>
<text text-anchor="start" x="301" y="-18.5" font-family="Helvetica,sans-Serif" font-size="10.00">Orchestrator::epoll</text>
<text text-anchor="middle" x="346.5" y="-7.5" font-family="Helvetica,sans-Serif" font-size="10.00">_rearm_unsafe</text>
</a>
</g>
</g>
<!-- Node5&#45;&gt;Node6 -->
<g id="edge6" class="edge">
<title>Node5&#45;&gt;Node6</title>
<path fill="none" stroke="midnightblue" d="M253.58,-15.5C263.04,-15.5 272.99,-15.5 282.71,-15.5"/>
<polygon fill="midnightblue" stroke="midnightblue" points="282.72,-19 292.72,-15.5 282.72,-12 282.72,-19"/>
</g>
</g>
</svg>
