<?xml version="1.0" encoding="UTF-8" standalone="no"?>
<!DOCTYPE svg PUBLIC "-//W3C//DTD SVG 1.1//EN"
 "http://www.w3.org/Graphics/SVG/1.1/DTD/svg11.dtd">
<!-- Generated by graphviz version 2.43.0 (0)
 -->
<!-- Title: SocketReadJob Pages: 1 -->
<svg width="139pt" height="248pt"
 viewBox="0.00 0.00 139.00 248.00" xmlns="http://www.w3.org/2000/svg" xmlns:xlink="http://www.w3.org/1999/xlink">
<g id="graph0" class="graph" transform="scale(1 1) rotate(0) translate(4 244)">
<title>SocketReadJob</title>
<polygon fill="white" stroke="transparent" points="-4,4 -4,-244 135,-244 135,4 -4,4"/>
<!-- Node1 -->
<g id="node1" class="node">
<title>Node1</title>
<g id="a_node1"><a xlink:title="Job to read from a socket.">
<polygon fill="#bfbfbf" stroke="black" points="11.5,-0.5 11.5,-79.5 119.5,-79.5 119.5,-0.5 11.5,-0.5"/>
<text text-anchor="middle" x="65.5" y="-67.5" font-family="Helvetica,sans-Serif" font-size="10.00">SocketReadJob</text>
<polyline fill="none" stroke="black" points="11.5,-60.5 119.5,-60.5 "/>
<text text-anchor="start" x="19.5" y="-48.5" font-family="Helvetica,sans-Serif" font-size="10.00">+ m_pstate</text>
<text text-anchor="start" x="19.5" y="-37.5" font-family="Helvetica,sans-Serif" font-size="10.00">+ m_porchestrator</text>
<polyline fill="none" stroke="black" points="11.5,-30.5 119.5,-30.5 "/>
<text text-anchor="start" x="19.5" y="-18.5" font-family="Helvetica,sans-Serif" font-size="10.00">+ SocketReadJob()</text>
<text text-anchor="start" x="19.5" y="-7.5" font-family="Helvetica,sans-Serif" font-size="10.00">+ run()</text>
</a>
</g>
</g>
<!-- Node2 -->
<g id="node2" class="node">
<title>Node2</title>
<g id="a_node2"><a xlink:href="classJobInterface.html" target="_top" xlink:title=" ">
<polygon fill="white" stroke="black" points="0,-116.5 0,-239.5 131,-239.5 131,-116.5 0,-116.5"/>
<text text-anchor="middle" x="65.5" y="-227.5" font-family="Helvetica,sans-Serif" font-size="10.00">JobInterface</text>
<polyline fill="none" stroke="black" points="0,-220.5 131,-220.5 "/>
<text text-anchor="start" x="8" y="-208.5" font-family="Helvetica,sans-Serif" font-size="10.00">+ m_job_id</text>
<text text-anchor="start" x="8" y="-197.5" font-family="Helvetica,sans-Serif" font-size="10.00">+ m_job_description</text>
<polyline fill="none" stroke="black" points="0,-190.5 131,-190.5 "/>
<text text-anchor="start" x="8" y="-178.5" font-family="Helvetica,sans-Serif" font-size="10.00">+ get_job_description()</text>
<text text-anchor="start" x="8" y="-167.5" font-family="Helvetica,sans-Serif" font-size="10.00">+ JobInterface()</text>
<text text-anchor="start" x="8" y="-156.5" font-family="Helvetica,sans-Serif" font-size="10.00">+ set_job_description()</text>
<text text-anchor="start" x="8" y="-145.5" font-family="Helvetica,sans-Serif" font-size="10.00">+ get_job_id()</text>
<text text-anchor="start" x="8" y="-134.5" font-family="Helvetica,sans-Serif" font-size="10.00">+ run()</text>
<text text-anchor="start" x="8" y="-123.5" font-family="Helvetica,sans-Serif" font-size="10.00">+ ~JobInterface()</text>
</a>
</g>
</g>
<!-- Node2&#45;&gt;Node1 -->
<g id="edge1" class="edge">
<title>Node2&#45;&gt;Node1</title>
<path fill="none" stroke="midnightblue" d="M65.5,-105.91C65.5,-96.83 65.5,-87.82 65.5,-79.54"/>
<polygon fill="none" stroke="midnightblue" points="62,-106.16 65.5,-116.16 69,-106.16 62,-106.16"/>
</g>
</g>
</svg>
