<?xml version="1.0" encoding="UTF-8" standalone="no"?>
<!DOCTYPE svg PUBLIC "-//W3C//DTD SVG 1.1//EN"
 "http://www.w3.org/Graphics/SVG/1.1/DTD/svg11.dtd">
<!-- Generated by graphviz version 2.43.0 (0)
 -->
<!-- Title: Orchestrator::wakeup_epoll_thread Pages: 1 -->
<svg width="296pt" height="88pt"
 viewBox="0.00 0.00 296.00 88.00" xmlns="http://www.w3.org/2000/svg" xmlns:xlink="http://www.w3.org/1999/xlink">
<g id="graph0" class="graph" transform="scale(1 1) rotate(0) translate(4 84)">
<title>Orchestrator::wakeup_epoll_thread</title>
<polygon fill="white" stroke="transparent" points="-4,4 -4,-84 292,-84 292,4 -4,4"/>
<!-- Node1 -->
<g id="node1" class="node">
<title>Node1</title>
<g id="a_node1"><a xlink:title="Wake up the epoll thread by sending it a signal.">
<polygon fill="#bfbfbf" stroke="black" points="167,-24.5 167,-54.5 288,-54.5 288,-24.5 167,-24.5"/>
<text text-anchor="start" x="175" y="-42.5" font-family="Helvetica,sans-Serif" font-size="10.00">Orchestrator::wakeup</text>
<text text-anchor="middle" x="227.5" y="-31.5" font-family="Helvetica,sans-Serif" font-size="10.00">_epoll_thread</text>
</a>
</g>
</g>
<!-- Node2 -->
<g id="node2" class="node">
<title>Node2</title>
<g id="a_node2"><a xlink:href="classOrchestrator.html#a01d61a328b5fe8330bc4f1244db3d8ae" target="_top" xlink:title="loop and accept connections on the listening socket Once a connection is received,...">
<polygon fill="white" stroke="black" points="0,-49.5 0,-79.5 131,-79.5 131,-49.5 0,-49.5"/>
<text text-anchor="start" x="8" y="-67.5" font-family="Helvetica,sans-Serif" font-size="10.00">Orchestrator::accepting</text>
<text text-anchor="middle" x="65.5" y="-56.5" font-family="Helvetica,sans-Serif" font-size="10.00">_thread_loop</text>
</a>
</g>
</g>
<!-- Node1&#45;&gt;Node2 -->
<g id="edge1" class="edge">
<title>Node1&#45;&gt;Node2</title>
<path fill="none" stroke="midnightblue" d="M156.98,-50.36C148.42,-51.7 139.71,-53.06 131.23,-54.39"/>
<polygon fill="midnightblue" stroke="midnightblue" points="157.58,-53.81 166.92,-48.81 156.5,-46.89 157.58,-53.81"/>
</g>
<!-- Node3 -->
<g id="node3" class="node">
<title>Node3</title>
<g id="a_node3"><a xlink:href="classOrchestrator.html#a666d0eef3fe352a6c390372c50e52978" target="_top" xlink:title="Add a file descriptor to queue for epoll This queue is monitored by the thread which executes epoll....">
<polygon fill="white" stroke="black" points="7.5,-0.5 7.5,-30.5 123.5,-30.5 123.5,-0.5 7.5,-0.5"/>
<text text-anchor="start" x="15.5" y="-18.5" font-family="Helvetica,sans-Serif" font-size="10.00">Orchestrator::add_to</text>
<text text-anchor="middle" x="65.5" y="-7.5" font-family="Helvetica,sans-Serif" font-size="10.00">_epoll_queue</text>
</a>
</g>
</g>
<!-- Node1&#45;&gt;Node3 -->
<g id="edge2" class="edge">
<title>Node1&#45;&gt;Node3</title>
<path fill="none" stroke="midnightblue" d="M156.86,-29.05C145.8,-27.4 134.47,-25.7 123.74,-24.09"/>
<polygon fill="midnightblue" stroke="midnightblue" points="156.51,-32.54 166.92,-30.56 157.55,-25.62 156.51,-32.54"/>
</g>
</g>
</svg>
