<?xml version="1.0" encoding="UTF-8" standalone="no"?>
<!DOCTYPE svg PUBLIC "-//W3C//DTD SVG 1.1//EN"
 "http://www.w3.org/Graphics/SVG/1.1/DTD/svg11.dtd">
<!-- Generated by graphviz version 2.43.0 (0)
 -->
<!-- Title: Graphical Class Hierarchy Pages: 1 -->
<svg width="215pt" height="142pt"
 viewBox="0.00 0.00 215.00 142.00" xmlns="http://www.w3.org/2000/svg" xmlns:xlink="http://www.w3.org/1999/xlink">
<g id="graph0" class="graph" transform="scale(1 1) rotate(0) translate(4 138)">
<title>Graphical Class Hierarchy</title>
<polygon fill="white" stroke="transparent" points="-4,4 -4,-138 211,-138 211,4 -4,4"/>
<!-- Node0 -->
<g id="node1" class="node">
<title>Node0</title>
<g id="a_node1"><a xlink:href="classJobInterface.html" target="_top" xlink:title=" ">
<polygon fill="white" stroke="black" points="0,-57.5 0,-76.5 75,-76.5 75,-57.5 0,-57.5"/>
<text text-anchor="middle" x="37.5" y="-64.5" font-family="Helvetica,sans-Serif" font-size="10.00">JobInterface</text>
</a>
</g>
</g>
<!-- Node1 -->
<g id="node2" class="node">
<title>Node1</title>
<g id="a_node2"><a xlink:href="classBasicTest.html" target="_top" xlink:title=" ">
<polygon fill="white" stroke="black" points="128,-114.5 128,-133.5 190,-133.5 190,-114.5 128,-114.5"/>
<text text-anchor="middle" x="159" y="-121.5" font-family="Helvetica,sans-Serif" font-size="10.00">BasicTest</text>
</a>
</g>
</g>
<!-- Node0&#45;&gt;Node1 -->
<g id="edge1" class="edge">
<title>Node0&#45;&gt;Node1</title>
<path fill="none" stroke="midnightblue" d="M64.41,-81.37C78.1,-88.76 95.28,-97.73 111,-105 118.03,-108.25 125.78,-111.51 132.92,-114.39"/>
<polygon fill="midnightblue" stroke="midnightblue" points="66,-78.26 55.55,-76.54 62.65,-84.4 66,-78.26"/>
</g>
<!-- Node2 -->
<g id="node3" class="node">
<title>Node2</title>
<g id="a_node3"><a xlink:href="classParseAndRunJob.html" target="_top" xlink:title=" ">
<polygon fill="white" stroke="black" points="111,-76.5 111,-95.5 207,-95.5 207,-76.5 111,-76.5"/>
<text text-anchor="middle" x="159" y="-83.5" font-family="Helvetica,sans-Serif" font-size="10.00">ParseAndRunJob</text>
</a>
</g>
</g>
<!-- Node0&#45;&gt;Node2 -->
<g id="edge2" class="edge">
<title>Node0&#45;&gt;Node2</title>
<path fill="none" stroke="midnightblue" d="M85.04,-74.4C93.46,-75.74 102.25,-77.14 110.7,-78.48"/>
<polygon fill="midnightblue" stroke="midnightblue" points="85.43,-70.92 75,-72.8 84.33,-77.83 85.43,-70.92"/>
</g>
<!-- Node3 -->
<g id="node4" class="node">
<title>Node3</title>
<g id="a_node4"><a xlink:href="classSocketReadJob.html" target="_top" xlink:title="Job to read from a socket.">
<polygon fill="white" stroke="black" points="114.5,-38.5 114.5,-57.5 203.5,-57.5 203.5,-38.5 114.5,-38.5"/>
<text text-anchor="middle" x="159" y="-45.5" font-family="Helvetica,sans-Serif" font-size="10.00">SocketReadJob</text>
</a>
</g>
</g>
<!-- Node0&#45;&gt;Node3 -->
<g id="edge3" class="edge">
<title>Node0&#45;&gt;Node3</title>
<path fill="none" stroke="midnightblue" d="M85.13,-59.59C94.68,-58.07 104.7,-56.47 114.15,-54.97"/>
<polygon fill="midnightblue" stroke="midnightblue" points="84.33,-56.17 75,-61.2 85.43,-63.08 84.33,-56.17"/>
</g>
<!-- Node4 -->
<g id="node5" class="node">
<title>Node4</title>
<g id="a_node5"><a xlink:href="classSocketWriteJob.html" target="_top" xlink:title=" ">
<polygon fill="white" stroke="black" points="114,-0.5 114,-19.5 204,-19.5 204,-0.5 114,-0.5"/>
<text text-anchor="middle" x="159" y="-7.5" font-family="Helvetica,sans-Serif" font-size="10.00">SocketWriteJob</text>
</a>
</g>
</g>
<!-- Node0&#45;&gt;Node4 -->
<g id="edge4" class="edge">
<title>Node0&#45;&gt;Node4</title>
<path fill="none" stroke="midnightblue" d="M64.41,-52.63C78.1,-45.24 95.28,-36.27 111,-29 118.03,-25.75 125.78,-22.49 132.92,-19.61"/>
<polygon fill="midnightblue" stroke="midnightblue" points="62.65,-49.6 55.55,-57.46 66,-55.74 62.65,-49.6"/>
</g>
</g>
</svg>
