<?xml version="1.0" encoding="UTF-8" standalone="no"?>
<!DOCTYPE svg PUBLIC "-//W3C//DTD SVG 1.1//EN"
 "http://www.w3.org/Graphics/SVG/1.1/DTD/svg11.dtd">
<!-- Generated by graphviz version 2.43.0 (0)
 -->
<!-- Title: Graphical Class Hierarchy Pages: 1 -->
<svg width="248pt" height="180pt"
 viewBox="0.00 0.00 248.00 180.00" xmlns="http://www.w3.org/2000/svg" xmlns:xlink="http://www.w3.org/1999/xlink">
<g id="graph0" class="graph" transform="scale(1 1) rotate(0) translate(4 176)">
<title>Graphical Class Hierarchy</title>
<polygon fill="white" stroke="transparent" points="-4,4 -4,-176 244,-176 244,4 -4,4"/>
<!-- Node0 -->
<g id="node1" class="node">
<title>Node0</title>
<g id="a_node1"><a xlink:href="classAbstractRespObject.html" target="_top" xlink:title=" ">
<polygon fill="white" stroke="black" points="0,-76.5 0,-95.5 113,-95.5 113,-76.5 0,-76.5"/>
<text text-anchor="middle" x="56.5" y="-83.5" font-family="Helvetica,sans-Serif" font-size="10.00">AbstractRespObject</text>
</a>
</g>
</g>
<!-- Node1 -->
<g id="node2" class="node">
<title>Node1</title>
<g id="a_node2"><a xlink:href="classRespArray.html" target="_top" xlink:title=" ">
<polygon fill="white" stroke="black" points="161,-152.5 161,-171.5 228,-171.5 228,-152.5 161,-152.5"/>
<text text-anchor="middle" x="194.5" y="-159.5" font-family="Helvetica,sans-Serif" font-size="10.00">RespArray</text>
</a>
</g>
</g>
<!-- Node0&#45;&gt;Node1 -->
<g id="edge1" class="edge">
<title>Node0&#45;&gt;Node1</title>
<path fill="none" stroke="midnightblue" d="M80.07,-101.42C98.24,-113.5 124.69,-130.33 149,-143 155.41,-146.34 162.53,-149.58 169.17,-152.41"/>
<polygon fill="midnightblue" stroke="midnightblue" points="81.62,-98.25 71.37,-95.58 77.72,-104.06 81.62,-98.25"/>
</g>
<!-- Node2 -->
<g id="node3" class="node">
<title>Node2</title>
<g id="a_node3"><a xlink:href="classRespBulkString.html" target="_top" xlink:title=" ">
<polygon fill="white" stroke="black" points="149,-114.5 149,-133.5 240,-133.5 240,-114.5 149,-114.5"/>
<text text-anchor="middle" x="194.5" y="-121.5" font-family="Helvetica,sans-Serif" font-size="10.00">RespBulkString</text>
</a>
</g>
</g>
<!-- Node0&#45;&gt;Node2 -->
<g id="edge2" class="edge">
<title>Node0&#45;&gt;Node2</title>
<path fill="none" stroke="midnightblue" d="M101.59,-98.32C120.27,-103.54 141.72,-109.53 159.19,-114.41"/>
<polygon fill="midnightblue" stroke="midnightblue" points="102.39,-94.91 91.82,-95.59 100.51,-101.65 102.39,-94.91"/>
</g>
<!-- Node3 -->
<g id="node4" class="node">
<title>Node3</title>
<g id="a_node4"><a xlink:href="classRespError.html" target="_top" xlink:title=" ">
<polygon fill="white" stroke="black" points="162.5,-76.5 162.5,-95.5 226.5,-95.5 226.5,-76.5 162.5,-76.5"/>
<text text-anchor="middle" x="194.5" y="-83.5" font-family="Helvetica,sans-Serif" font-size="10.00">RespError</text>
</a>
</g>
</g>
<!-- Node0&#45;&gt;Node3 -->
<g id="edge3" class="edge">
<title>Node0&#45;&gt;Node3</title>
<path fill="none" stroke="#8b1a1a" d="M123.49,-86C137.01,-86 150.64,-86 162.23,-86"/>
<polygon fill="#8b1a1a" stroke="#8b1a1a" points="123.21,-82.5 113.21,-86 123.21,-89.5 123.21,-82.5"/>
</g>
<!-- Node4 -->
<g id="node5" class="node">
<title>Node4</title>
<g id="a_node5"><a xlink:href="classRespInteger.html" target="_top" xlink:title=" ">
<polygon fill="white" stroke="black" points="157,-38.5 157,-57.5 232,-57.5 232,-38.5 157,-38.5"/>
<text text-anchor="middle" x="194.5" y="-45.5" font-family="Helvetica,sans-Serif" font-size="10.00">RespInteger</text>
</a>
</g>
</g>
<!-- Node0&#45;&gt;Node4 -->
<g id="edge4" class="edge">
<title>Node0&#45;&gt;Node4</title>
<path fill="none" stroke="midnightblue" d="M101.59,-73.68C120.27,-68.46 141.72,-62.47 159.19,-57.59"/>
<polygon fill="midnightblue" stroke="midnightblue" points="100.51,-70.35 91.82,-76.41 102.39,-77.09 100.51,-70.35"/>
</g>
<!-- Node5 -->
<g id="node6" class="node">
<title>Node5</title>
<g id="a_node6"><a xlink:href="classRespString.html" target="_top" xlink:title=" ">
<polygon fill="white" stroke="black" points="160,-0.5 160,-19.5 229,-19.5 229,-0.5 160,-0.5"/>
<text text-anchor="middle" x="194.5" y="-7.5" font-family="Helvetica,sans-Serif" font-size="10.00">RespString</text>
</a>
</g>
</g>
<!-- Node0&#45;&gt;Node5 -->
<g id="edge5" class="edge">
<title>Node0&#45;&gt;Node5</title>
<path fill="none" stroke="midnightblue" d="M80.07,-70.58C98.24,-58.5 124.69,-41.67 149,-29 155.41,-25.66 162.53,-22.42 169.17,-19.59"/>
<polygon fill="midnightblue" stroke="midnightblue" points="77.72,-67.94 71.37,-76.42 81.62,-73.75 77.72,-67.94"/>
</g>
</g>
</svg>
